# xmcd
# 
# Track frame offsets:
#     150
#     14040
#     27580
#     80417
#     91023
#     106984
#     125749
#     139890
# 
# Disc length: 2076
# 
# Revision: 1
# Processed by: cddbd v1.5.2PL0 Copyright (c) Steve Scherf et al.
# Submitted via: fre:ac v1.0.17
# 
DISCID=68081a08
DTITLE=The Temptations - All Directions (2014 Remastered)
DYEAR=1972
DGENRE=Soul
TTITLE0=Funky Music Sho Nuff Turns Me On
TTITLE1=Run Charlie Run
TTITLE2=Papa Was a Rollin' Stone
TTITLE3=Love Woke Me Up This Morning
TTITLE4=I Ain't Got Nuthin'
TTITLE5=The First Time (Ever I Saw Your Face)
TTITLE6=Mother Nature
TTITLE7=Do Your Thing
EXTD=
EXTT0=
EXTT1=
EXTT2=
EXTT3=
EXTT4=
EXTT5=
EXTT6=
EXTT7=
PLAYORDER=
